<svg xmlns="http://www.w3.org/2000/svg" width="124" height="104" viewBox="0 0 124 104">
    <defs>
        <style>
            .prefix__cls-2{fill:#fff}
        </style>
    </defs>
    <g id="prefix__ico_footer_logo" transform="translate(-240 -82.5)">
        <path id="prefix__사각형_53" d="M0 0H124V104H0z" data-name="사각형 53" transform="translate(240 82.5)" style="fill:none"/>
        <g id="prefix__그룹_24" data-name="그룹 24" transform="translate(-66.943 -16.638)">
            <g id="prefix__그룹_21" data-name="그룹 21" transform="translate(323.689 105.404)">
                <path id="prefix__패스_26" d="M428.747 118.651a2.521 2.521 0 0 0-4.4 2.113l-12.856 6.131a4.967 4.967 0 0 0-.381-.519 4.839 4.839 0 0 0-5.742-1.242l-6.866-10.8a4.127 4.127 0 1 0-6.726-4.084l-13.436-1.176a2.7 2.7 0 0 0-2.452-2.29 2.807 2.807 0 0 0-.355 0 2.76 2.76 0 0 0-2.533 2.547 2.833 2.833 0 0 0 2.479 2.965l1.274 7.952a6.527 6.527 0 0 0-4.314 3.447l-10.761-4.187a4.835 4.835 0 0 0 .121-.75 4.741 4.741 0 0 0-4.353-5.1 4.737 4.737 0 1 0 3.776 7l10.771 4.174a6.515 6.515 0 0 0 .989 5.486l-12.13 10.009a3.473 3.473 0 0 0-1.978-.817 3.5 3.5 0 0 0-.547 6.974 3.59 3.59 0 0 0 .461.006 3.494 3.494 0 0 0 2.864-5.2l12.148-10.024a6.51 6.51 0 0 0 3.3 1.692l-1.146 10.556a4.13 4.13 0 0 0-.022 8.236 4.217 4.217 0 0 0 .545.007 4.139 4.139 0 0 0 3.9-3.8v-.115l8.484-.608a4.133 4.133 0 0 0 3.705 3.2 4.217 4.217 0 0 0 .545.007 4.131 4.131 0 0 0 2.925-6.8l8.712-10.063a4.82 4.82 0 0 0 2.3.792 4.953 4.953 0 0 0 .639.008 4.843 4.843 0 0 0 3.534-1.832l6.706 4.038a3.382 3.382 0 0 0 2.885 4.625 3.39 3.39 0 1 0 .53-6.76 3.5 3.5 0 0 0-.447-.006 3.377 3.377 0 0 0-2.3 1.082l-6.729-4.051a4.824 4.824 0 0 0 .174-3.45l12.844-6.125a2.515 2.515 0 0 0 1.747.911 2.562 2.562 0 0 0 .332 0 2.526 2.526 0 0 0 1.785-4.162zm-33.657 24.167a4.117 4.117 0 0 0-1.877-.621 4.264 4.264 0 0 0-.544-.007 4.139 4.139 0 0 0-3.9 3.792l-8.522.611a4.108 4.108 0 0 0-3.048-2.978l1.145-10.546c.1 0 .209 0 .312-.006a6.55 6.55 0 0 0 6.044-5.163l17.876 1.775a4.841 4.841 0 0 0 1.23 3.076zm9.224-17.011a4.862 4.862 0 0 0-1.614 2.623l-17.86-1.773a6.543 6.543 0 0 0-6.019-6.645 6.68 6.68 0 0 0-.83-.012l-1.281-8.039a2.708 2.708 0 0 0 1.523-1.635l13.438 1.176a4.122 4.122 0 0 0 3.795 3.85 4.271 4.271 0 0 0 .544.007 4.09 4.09 0 0 0 1.441-.344zm8.575-16.864a2.131 2.131 0 0 1-.508-1.562 2.146 2.146 0 1 1 2.254 2.311 2.248 2.248 0 0 1-.283 0 2.131 2.131 0 0 1-1.464-.748zm-65.224 22.138a3.5 3.5 0 0 1-3.3 3.219 3.593 3.593 0 0 1-.461-.006 3.5 3.5 0 0 1 .086-6.98 3.591 3.591 0 0 1 .461.006 3.5 3.5 0 0 1 3.214 3.762z" class="prefix__cls-2" data-name="패스 26" transform="translate(-340.681 -105.404)"/>
            </g>
            <g id="prefix__그룹_22" data-name="그룹 22" transform="translate(315.943 160.133)">
                <path id="prefix__패스_27" d="M315.943 297.683v-17.112h6.7q8.5 0 8.5 8.089 0 9.023-8.5 9.023zm6.7-2.752q5.325 0 5.325-6.271 0-5.337-5.325-5.337h-3.53v11.608z" class="prefix__cls-2" data-name="패스 27" transform="translate(-315.943 -280.452)"/>
                <path id="prefix__패스_28" d="M387.209 297.683h-3.255l7.263-17.112h3.411l7.419 17.112h-3.411l-1.95-4.667H391l1.089-2.752h3.447l-2.693-6.426z" class="prefix__cls-2" data-name="패스 28" transform="translate(-362.658 -280.452)"/>
                <path id="prefix__패스_29" d="M476.408 296.7a14.13 14.13 0 0 1-5.026.838q-9.214 0-9.214-8.915 0-8.436 9.214-8.436a14.137 14.137 0 0 1 5.026.837v2.876a11.93 11.93 0 0 0-4.787-.957q-6.163 0-6.163 5.684 0 6.163 6.163 6.163a11.929 11.929 0 0 0 4.787-.958z" class="prefix__cls-2" data-name="패스 29" transform="translate(-416.382 -280.19)"/>
                <path id="prefix__패스_30" d="M530.943 288.889q0-8.7 8.592-8.7 8.46 0 8.46 8.7 0 8.652-8.46 8.652-8.21 0-8.592-8.652zm8.592 5.9q5.169 0 5.17-5.971 0-5.876-5.17-5.875-5.3 0-5.3 5.875-.001 5.971 5.3 5.971z" class="prefix__cls-2" data-name="패스 30" transform="translate(-463.622 -280.19)"/>
                <path id="prefix__패스_31" d="M610.609 297.683v-17.112h3.171l9.035 12.469v-12.469h3.051v17.112H622.7l-9.035-12.732v12.732z" class="prefix__cls-2" data-name="패스 31" transform="translate(-518.344 -280.452)"/>
            </g>
            <g id="prefix__그룹_23" data-name="그룹 23" transform="translate(329.324 185.749)">
                <path id="prefix__패스_32" d="M360.6 368.958h-1.925v-6.693h1.925a3.291 3.291 0 0 1 1.318.262 3.051 3.051 0 0 1 1.05.747 3.3 3.3 0 0 1 .648 1.061 3.655 3.655 0 0 1 0 2.533 3.421 3.421 0 0 1-.648 1.071 2.984 2.984 0 0 1-1.05.757 3.286 3.286 0 0 1-1.318.262zm-1.462-.463h1.462a2.6 2.6 0 0 0 2.028-.875 2.7 2.7 0 0 0 .551-.911 3.278 3.278 0 0 0 0-2.2 2.705 2.705 0 0 0-.551-.911 2.643 2.643 0 0 0-2.028-.854h-1.462z" class="prefix__cls-2" data-name="패스 32" transform="translate(-358.678 -362.182)"/>
                <path id="prefix__패스_33" d="M380.045 367.077l-.793 1.7h-.515l3.151-6.777 2.976 6.775h-.5l-.751-1.7zm1.822-3.933l-1.606 3.47h3.139z" class="prefix__cls-2" data-name="패스 33" transform="translate(-372.456 -362.001)"/>
                <path id="prefix__패스_34" d="M406.117 362.265v.473h-2.646v6.219H403v-6.219h-2.657v-.473z" class="prefix__cls-2" data-name="패스 34" transform="translate(-387.296 -362.182)"/>
                <path id="prefix__패스_35" d="M422.2 367.077l-.793 1.7h-.515l3.153-6.777 2.976 6.775h-.5l-.752-1.7zm1.822-3.933l-1.606 3.47h3.141z" class="prefix__cls-2" data-name="패스 35" transform="translate(-401.413 -362.001)"/>
                <path id="prefix__패스_36" d="M460.041 362.265v.473h-2.646v6.219h-.474v-6.219h-2.656v-.473z" class="prefix__cls-2" data-name="패스 36" transform="translate(-424.335 -362.182)"/>
                <path id="prefix__패스_37" d="M480.177 368.871a3.3 3.3 0 0 1-1.7-.458 3.434 3.434 0 0 1 0-5.92 3.38 3.38 0 0 1 3.4 0 3.433 3.433 0 0 1 0 5.92 3.3 3.3 0 0 1-1.7.458zm0-6.363a2.817 2.817 0 0 0-1.462.4 2.977 2.977 0 0 0-1.066 1.071 2.952 2.952 0 0 0 0 2.955 2.976 2.976 0 0 0 1.065 1.066 2.895 2.895 0 0 0 2.924 0 2.941 2.941 0 0 0 1.061-1.071 2.987 2.987 0 0 0 0-2.955 2.942 2.942 0 0 0-1.061-1.071 2.817 2.817 0 0 0-1.461-.395z" class="prefix__cls-2" data-name="패스 37" transform="translate(-439.806 -362.024)"/>
                <path id="prefix__패스_38" d="M515.006 367.917l2.533-5.652h.515l-3.048 6.806-3.038-6.806h.5z" class="prefix__cls-2" data-name="패스 38" transform="translate(-463.97 -362.182)"/>
                <path id="prefix__패스_39" d="M534.355 367.077l-.793 1.7h-.515L536.2 362l2.976 6.775h-.5l-.751-1.7zm1.822-3.933l-1.606 3.47h3.14z" class="prefix__cls-2" data-name="패스 39" transform="translate(-478.449 -362.001)"/>
                <path id="prefix__패스_40" d="M558.893 368.958v-6.693h.463v6.229h3.758v.463z" class="prefix__cls-2" data-name="패스 40" transform="translate(-496.202 -362.182)"/>
                <path id="prefix__패스_41" d="M581.4 369.03a2.443 2.443 0 0 1-.973-.2 2.543 2.543 0 0 1-.829-.571 2.359 2.359 0 0 1-.551-.824 2.647 2.647 0 0 1-.191-1v-4.17h.463v4.17a2.158 2.158 0 0 0 .16.824 2.034 2.034 0 0 0 .448.679 2.1 2.1 0 0 0 .68.458 2.037 2.037 0 0 0 .793.159 2.063 2.063 0 0 0 .8-.159 2.1 2.1 0 0 0 .679-.458 2.047 2.047 0 0 0 .448-.679 2.171 2.171 0 0 0 .159-.824v-4.17h.464v4.17a2.646 2.646 0 0 1-.191 1 2.364 2.364 0 0 1-.55.824 2.562 2.562 0 0 1-.824.571 2.458 2.458 0 0 1-.985.2z" class="prefix__cls-2" data-name="패스 41" transform="translate(-509.912 -362.182)"/>
                <path id="prefix__패스_42" d="M602.792 368.958v-6.693h4.335v.473h-3.871v2.636h3.017v.474h-3.017v2.626h3.871v.484z" class="prefix__cls-2" data-name="패스 42" transform="translate(-526.355 -362.182)"/>
            </g>
        </g>
    </g>
</svg>
