<?xml version="1.0" encoding="utf-8"?>
<!-- Generator: Adobe Illustrator 24.1.2, SVG Export Plug-In . SVG Version: 6.00 Build 0)  -->
<svg version="1.1" id="Layer_1" xmlns="http://www.w3.org/2000/svg" xmlns:xlink="http://www.w3.org/1999/xlink" x="0px" y="0px"
	 viewBox="0 0 6.6 12.87" style="enable-background:new 0 0 6.6 12.87;" xml:space="preserve">
<style type="text/css">
	.st0{opacity:0.7;}
	.st1{fill:#FFFFFF;}
</style>
<g id="그룹_806" transform="translate(-153.533 -235.446)" class="st0">
	<path id="패스_853" class="st1" d="M160,235.49l-1.85-0.04c-0.73-0.02-1.44,0.27-1.96,0.79c-0.53,0.52-0.82,1.23-0.82,1.97v1.79
		h-1.72c-0.07,0-0.13,0.06-0.13,0.13v0v2.25c0,0.07,0.06,0.13,0.13,0.13h0h1.72v5.68c0,0.07,0.06,0.13,0.13,0.13h0h2.28
		c0.07,0,0.13-0.06,0.13-0.13c0,0,0,0,0,0v-5.68h1.73c0.06,0,0.12-0.05,0.13-0.11l0.29-2.24c0-0.04-0.01-0.07-0.03-0.1
		c-0.02-0.03-0.06-0.05-0.1-0.04h-2.01v-1.13c-0.03-0.31,0.06-0.61,0.24-0.87c0.14-0.15,0.34-0.23,0.54-0.22H160
		c0.07,0,0.13-0.06,0.13-0.13v0v-2.03C160.14,235.56,160.08,235.49,160,235.49C160.01,235.49,160.01,235.49,160,235.49z"/>
</g>
</svg>
