<?xml version="1.0" encoding="utf-8"?>
<!-- Generator: Adobe Illustrator 24.1.2, SVG Export Plug-In . SVG Version: 6.00 Build 0)  -->
<svg version="1.1" id="Layer_1" xmlns="http://www.w3.org/2000/svg" xmlns:xlink="http://www.w3.org/1999/xlink" x="0px" y="0px"
	 viewBox="0 0 8.73 8.64" style="enable-background:new 0 0 8.73 8.64;" xml:space="preserve">
<style type="text/css">
	.st0{opacity:0.7;}
	.st1{fill:#FFFFFF;}
</style>
<g id="그룹_809" transform="translate(-264.52 -237.56)" class="st0">
	<g id="그룹_808" transform="translate(264.52 237.56)">
		<rect id="사각형_236" x="0.08" y="2.62" class="st1" width="1.75" height="6.01"/>
		<path id="패스_855" class="st1" d="M0.96,0C0.43,0,0,0.43,0,0.96s0.43,0.96,0.96,0.96c0.53,0,0.96-0.43,0.96-0.96l0,0
			C1.92,0.43,1.49,0,0.96,0z"/>
		<path id="패스_856" class="st1" d="M7.31,2.6c-0.89-0.3-1.87-0.05-2.5,0.64l0,0L4.59,2.45H2.99v6.18h1.88V4.97
			c0-0.55,0.44-0.99,0.99-0.99l0,0l0,0c0.55,0,0.99,0.44,0.99,0.99l0,0v3.67h1.88V5.54C8.73,5.54,8.94,3.07,7.31,2.6z"/>
	</g>
</g>
</svg>
