<?xml version="1.0" encoding="utf-8"?>
<!-- Generator: Adobe Illustrator 24.1.2, SVG Export Plug-In . SVG Version: 6.00 Build 0)  -->
<svg version="1.1" id="Layer_1" xmlns="http://www.w3.org/2000/svg" xmlns:xlink="http://www.w3.org/1999/xlink" x="0px" y="0px"
	 viewBox="0 0 16.62 20" style="enable-background:new 0 0 16.62 20;" xml:space="preserve">
<style type="text/css">
	.st0{fill:#0E3264;}
</style>
<g id="그룹_290" transform="translate(32.874 5485.021)">
	<g id="그룹_52" transform="translate(-32.252 -5484.421)">
		<path class="st0" d="M8.08,19.4c-0.72,0-1.31,0-1.84-0.01L5,19.39c-1.81,0-3.31-0.69-4.34-1.99c-1.17-1.48-1.57-3.62-1.07-5.72
			c0.9-3.79,4.9-7.28,5.06-7.42C4.75,4.17,4.87,4.12,5,4.12h5.25c0.13,0,0.25,0.04,0.34,0.13c0.17,0.15,4.24,3.65,5.15,7.14
			c0.56,2.16,0.18,4.45-0.99,5.98c-1,1.31-2.49,2.01-4.3,2.02C9.51,19.4,8.74,19.4,8.08,19.4z M5.2,5.18
			c-0.71,0.65-3.85,3.66-4.59,6.74c-0.43,1.79-0.1,3.6,0.87,4.82c0.82,1.04,2.04,1.59,3.51,1.59l1.25,0.01
			c1.01,0.01,2.22,0.01,4.19-0.01c1.48-0.01,2.68-0.57,3.47-1.61c0.98-1.27,1.28-3.22,0.8-5.07c-0.73-2.82-3.95-5.83-4.67-6.48H5.2z
			"/>
		<path class="st0" d="M10.39,3.82H4.93c-0.2,0-0.38-0.11-0.47-0.28L2.71,0.17C2.63,0.01,2.63-0.19,2.73-0.35
			C2.82-0.5,3-0.6,3.18-0.6h8.89c0.18,0,0.35,0.09,0.45,0.25c0.1,0.16,0.1,0.35,0.02,0.51l-1.68,3.37
			C10.77,3.71,10.59,3.82,10.39,3.82z M5.25,2.77h4.81l1.16-2.31H4.05L5.25,2.77z"/>
	</g>
	<path class="st0" d="M-22.68-5469.24c-0.08,0-0.17-0.02-0.25-0.06l-1.64-0.86l-1.64,0.86c-0.18,0.09-0.39,0.08-0.56-0.04
		c-0.16-0.12-0.24-0.32-0.21-0.52l0.31-1.82l-1.32-1.29c-0.14-0.14-0.2-0.35-0.13-0.54c0.06-0.19,0.23-0.33,0.43-0.36l1.83-0.27
		l0.82-1.66c0.09-0.18,0.27-0.29,0.47-0.29l0,0c0.2,0,0.38,0.11,0.47,0.29l0.82,1.66l1.83,0.27c0.2,0.03,0.36,0.17,0.43,0.36
		c0.06,0.19,0.01,0.4-0.13,0.54l-1.32,1.29l0.31,1.82c0.03,0.2-0.05,0.4-0.21,0.52C-22.46-5469.27-22.57-5469.24-22.68-5469.24z
		 M-26.47-5472.97l0.76,0.74c0.12,0.12,0.18,0.3,0.15,0.47l-0.18,1.04l0.93-0.49c0.15-0.08,0.34-0.08,0.49,0l0.93,0.49l-0.18-1.04
		c-0.03-0.17,0.03-0.35,0.15-0.47l0.76-0.74l-1.04-0.15c-0.17-0.02-0.32-0.13-0.4-0.29l-0.47-0.95l-0.47,0.95
		c-0.08,0.16-0.23,0.26-0.4,0.29L-26.47-5472.97z"/>
</g>
</svg>
