<?xml version="1.0" encoding="utf-8"?>
<!-- Generator: Adobe Illustrator 24.1.2, SVG Export Plug-In . SVG Version: 6.00 Build 0)  -->
<svg version="1.1" id="Layer_1" xmlns="http://www.w3.org/2000/svg" xmlns:xlink="http://www.w3.org/1999/xlink" x="0px" y="0px"
	 viewBox="0 0 20 20" style="enable-background:new 0 0 20 20;" xml:space="preserve">
<style type="text/css">
	.st0{fill:#0E3264;}
</style>
<g id="TEAM_ICON" transform="translate(0.6 0.6)">
	<path class="st0" d="M5.28,7.61c-1.72,0-3.12-1.4-3.12-3.12s1.4-3.12,3.12-3.12s3.12,1.4,3.12,3.12S7.01,7.61,5.28,7.61z
		 M5.28,2.49c-1.1,0-1.99,0.9-1.99,2s0.89,1.99,1.99,1.99s2-0.89,2-1.99S6.38,2.49,5.28,2.49z"/>
	<path class="st0" d="M10.59,17.51c-0.31,0-0.56-0.25-0.56-0.56v-2.77c0.09-1.8-1.28-3.34-3.05-3.45l-3.44,0
		c-1.74,0.11-3.1,1.65-3.01,3.42l0,2.8c0,0.31-0.25,0.56-0.56,0.56s-0.56-0.25-0.56-0.56v-2.77c-0.12-2.36,1.72-4.42,4.1-4.58
		l3.51,0c2.42,0.15,4.26,2.22,4.14,4.61v2.74C11.16,17.26,10.9,17.51,10.59,17.51z"/>
	<g id="그룹_55" transform="translate(11.65 1.235)">
		<g id="그룹_54">
			<path class="st0" d="M1.26,6.38c-1.4,0-2.54-1.14-2.54-2.54s1.14-2.54,2.54-2.54s2.54,1.14,2.54,2.54S2.67,6.38,1.26,6.38z
				 M1.26,2.42c-0.78,0-1.42,0.63-1.42,1.41s0.64,1.41,1.42,1.41c0.78,0,1.41-0.63,1.41-1.41S2.04,2.42,1.26,2.42z"/>
			<path class="st0" d="M7.19,16.28c-0.31,0-0.56-0.25-0.56-0.56v-2.77C6.62,11.05,5.07,9.5,3.17,9.49h-3.46
				c-0.31,0-0.56-0.25-0.56-0.56s0.25-0.56,0.56-0.56h3.46c2.52,0.01,4.57,2.06,4.57,4.57v2.77C7.75,16.02,7.5,16.28,7.19,16.28z"/>
		</g>
	</g>
</g>
</svg>
