<?xml version="1.0" encoding="utf-8"?>
<!-- Generator: Adobe Illustrator 24.1.2, SVG Export Plug-In . SVG Version: 6.00 Build 0)  -->
<svg version="1.1" id="Layer_1" xmlns="http://www.w3.org/2000/svg" xmlns:xlink="http://www.w3.org/1999/xlink" x="0px" y="0px"
	 viewBox="0 0 19.23 20" style="enable-background:new 0 0 19.23 20;" xml:space="preserve">
<style type="text/css">
	.st0{fill:#0E3264;}
</style>
<g>
	<path class="st0" d="M13.92,10.7c1.65-0.02,2.96-0.52,3.88-1.53c1.72-1.87,1.41-4.75,1.4-4.87c-0.03-0.27-0.26-0.47-0.52-0.47
		h-2.81c0.21-1.78,0.22-3.13,0.22-3.3c0-0.29-0.24-0.53-0.53-0.53H9.61H3.67C3.53,0,3.39,0.06,3.29,0.15
		c-0.1,0.1-0.15,0.23-0.15,0.37c0,0.17,0.01,1.52,0.22,3.3h-2.8c-0.27,0-0.49,0.2-0.52,0.47c-0.01,0.12-0.32,3,1.4,4.87
		c0.92,1,2.22,1.51,3.87,1.52c0.56,0.98,1.26,1.79,2.14,2.3c0,0.02-0.01,0.03-0.01,0.05v2.27H5.61c-0.29,0-0.53,0.24-0.53,0.53v3.62
		c0,0.29,0.24,0.53,0.53,0.53h8c0.29,0,0.53-0.24,0.53-0.53v-3.62c0-0.29-0.24-0.53-0.53-0.53h-1.82v-2.27
		c0-0.02-0.01-0.03-0.01-0.05C12.66,12.49,13.36,11.67,13.92,10.7z M13.09,18.95H6.14v-2.57h6.95V18.95z M18.17,4.88
		c0,0.8-0.12,2.46-1.15,3.58C16.4,9.12,15.54,9.5,14.46,9.6c0.64-1.49,1.02-3.19,1.26-4.72H18.17z M2.21,8.46
		C1.18,7.34,1.05,5.69,1.06,4.88H3.5C3.73,6.41,4.12,8.11,4.76,9.6C3.68,9.49,2.82,9.12,2.21,8.46z M10.74,13.58v1.68H8.48v-1.68
		H10.74z M9.61,12.52c-4.69,0-5.32-9.15-5.4-11.47h5.4h5.4C14.93,3.37,14.3,12.52,9.61,12.52z"/>
	<path class="st0" d="M14,1.68c-0.31-0.01-0.54,0.21-0.56,0.5c-0.06,0.96-0.31,3.66-0.8,4.55c-0.14,0.26-0.05,0.58,0.21,0.72
		c0.08,0.04,0.17,0.07,0.25,0.07c0.19,0,0.37-0.1,0.46-0.27c0.7-1.27,0.91-4.62,0.93-5C14.51,1.95,14.29,1.7,14,1.68z"/>
	<path class="st0" d="M12.76,8.2c-0.26-0.14-0.58-0.05-0.72,0.2l-0.15,0.27c-0.14,0.25-0.05,0.58,0.2,0.72
		c0.08,0.05,0.17,0.07,0.26,0.07c0.19,0,0.37-0.1,0.46-0.27l0.15-0.27C13.11,8.66,13.01,8.34,12.76,8.2z"/>
</g>
</svg>
