<?xml version="1.0" encoding="utf-8"?>
<!-- Generator: Adobe Illustrator 24.1.2, SVG Export Plug-In . SVG Version: 6.00 Build 0)  -->
<svg version="1.1" id="Layer_1" xmlns="http://www.w3.org/2000/svg" xmlns:xlink="http://www.w3.org/1999/xlink" x="0px" y="0px"
	 viewBox="0 0 13.2 9.91" style="enable-background:new 0 0 13.2 9.91;" xml:space="preserve">
<style type="text/css">
	.st0{opacity:0.7;}
	.st1{fill:#FFFFFF;}
</style>
<g id="그룹_811" transform="translate(-370.773 -240.086)" class="st0">
	<path id="패스_858" class="st1" d="M381.37,240.09h-8c-1.44,0-2.61,1.17-2.61,2.61v4.7c0,1.44,1.17,2.61,2.61,2.61h8
		c1.44,0,2.61-1.17,2.61-2.61v-4.7C383.98,241.25,382.81,240.09,381.37,240.09L381.37,240.09z M375.74,247.21v-4.35
		c0-0.24,0.2-0.44,0.44-0.44c0.08,0,0.16,0.02,0.23,0.06l3.63,2.17c0.21,0.13,0.28,0.4,0.15,0.61c-0.04,0.06-0.09,0.12-0.15,0.15
		l-3.63,2.17c-0.21,0.13-0.48,0.06-0.61-0.15C375.76,247.37,375.74,247.29,375.74,247.21L375.74,247.21z"/>
</g>
</svg>
